<?xml version="1.0" encoding="UTF-8" standalone="no"?>
<!-- Created with Inkscape (http://www.inkscape.org/) -->

<svg
   version="1.1"
   id="svg1"
   width="373.33334"
   height="108.92"
   viewBox="0 0 373.33334 108.92"
   sodipodi:docname="dana-e-wallet-app-seeklogo.eps"
   xmlns:inkscape="http://www.inkscape.org/namespaces/inkscape"
   xmlns:sodipodi="http://sodipodi.sourceforge.net/DTD/sodipodi-0.dtd"
   xmlns="http://www.w3.org/2000/svg"
   xmlns:svg="http://www.w3.org/2000/svg">
  <defs
     id="defs1" />
  <sodipodi:namedview
     id="namedview1"
     pagecolor="#ffffff"
     bordercolor="#000000"
     borderopacity="0.25"
     inkscape:showpageshadow="2"
     inkscape:pageopacity="0.0"
     inkscape:pagecheckerboard="0"
     inkscape:deskcolor="#d1d1d1">
    <inkscape:page
       x="0"
       y="0"
       inkscape:label="1"
       id="page1"
       width="373.33334"
       height="108.92"
       margin="0"
       bleed="0" />
  </sodipodi:namedview>
  <g
     id="g1"
     inkscape:groupmode="layer"
     inkscape:label="1">
    <g
       id="group-R5">
      <path
         id="path2"
         d="m 1952.67,330.207 c 0,35.859 -0.08,71.723 0.02,107.586 0.21,83.566 57.09,154.289 138.52,172.363 95.25,21.141 192.95,-46.746 207.09,-143.758 1.57,-10.746 2.33,-21.492 2.33,-32.335 -0.04,-74.434 -0.16,-148.868 0.16,-223.301 0.04,-8.094 -2.24,-10.184 -10.13,-10.008 -22.65,0.516 -45.34,0.516 -67.99,0 -7.72,-0.176 -9.58,2.156 -9.55,9.687 0.27,75.106 0.34,150.215 0.09,225.321 -0.16,50.285 -38.61,89.004 -87.44,88.742 -47.19,-0.254 -85.32,-38.871 -85.7,-87.395 -0.33,-41.953 -0.07,-83.906 -0.08,-125.859 0,-33.496 -0.27,-66.992 0.21,-100.477 0.11,-8.234 -2.49,-10.168 -10.28,-10 -22.65,0.477 -45.34,0.516 -67.99,-0.031 -7.82,-0.183 -9.5,2.297 -9.43,9.688 0.35,39.922 0.17,79.855 0.17,119.777"
         style="fill:#4b85cd;fill-opacity:1;fill-rule:nonzero;stroke:none"
         transform="matrix(0.13333333,0,0,-0.13333333,0,108.92)" />
      <path
         id="path3"
         d="m 635.375,407.168 c 0,-36.543 0.039,-73.086 -0.02,-109.617 -0.023,-13.996 -1.664,-14.981 -13.378,-8.028 -47.446,28.172 -97.715,28.106 -149.067,14.422 -44.39,-11.836 -86.812,-29.804 -130.793,-42.937 -41.375,-12.363 -83.191,-18.34 -125.687,-4.992 -12.625,3.976 -24.457,9.629 -35.969,16.144 -8.84,5 -13.242,12.227 -13.398,22.195 -0.11,6.77 -0.098,13.536 -0.098,20.293 -0.008,60.911 -0.027,121.809 0.027,182.711 0.004,7.426 0.313,14.864 0.684,22.286 0.469,9.335 3.129,10.781 11.262,5.41 25.421,-16.793 53.125,-26.563 83.675,-27.211 35.117,-0.746 68.012,9.453 100.496,21.328 41.84,15.297 82.813,33.101 126.024,44.445 46.351,12.176 90.379,7.531 131.262,-19.054 10.293,-6.696 15.23,-15.313 15.109,-27.774 -0.363,-36.539 -0.129,-73.082 -0.129,-109.621 z M 756.832,598.043 C 650.813,808.063 386.793,880.965 188.375,754.914 5.07813,638.473 -54.6133,392.141 54.6094,202.863 142.91,49.8438 318.277,-28.1328 486.02,9.27734 664.082,48.9961 801.684,208.977 802.563,408.672 c -1.016,65.199 -13.375,125.266 -45.731,189.371"
         style="fill:#4b85cd;fill-opacity:1;fill-rule:nonzero;stroke:none"
         transform="matrix(0.13333333,0,0,-0.13333333,0,108.92)" />
      <path
         id="path4"
         d="m 2704.46,378.242 c -26.35,0.11 -52.7,0.051 -79.06,0.051 -25.68,0 -51.37,0.301 -77.04,-0.176 -7.76,-0.148 -9.85,2.352 -9.61,9.793 0.63,18.895 -0.63,37.91 0.97,56.699 4,46.993 41.89,80.672 88.4,79.891 44.24,-0.742 81.32,-36.867 83.97,-82.82 1.09,-18.86 0.08,-37.836 0.56,-56.746 0.16,-6.719 -3.34,-6.719 -8.19,-6.692 z m 95.34,59.61 c -0.01,18.039 -2.85,35.714 -8.33,52.906 -25.53,80.191 -103.99,132.25 -184.11,122.25 -84.89,-10.602 -149.99,-77.645 -154.72,-162 -2.22,-39.465 -0.38,-79.153 -0.38,-118.731 -0.24,0 -0.47,0 -0.71,0 0,-40.617 0.18,-81.23 -0.16,-121.847 -0.07,-7.481 1.83,-9.864 9.58,-9.676 23,0.527 46.02,0.457 69.03,0.019 7.23,-0.136 9.15,2.196 9.03,9.18 -0.37,23.68 0.06,47.383 -0.26,71.063 -0.09,6.574 1.92,8.742 8.61,8.711 52.46,-0.235 104.92,-0.223 157.38,-0.008 6.31,0.027 7.96,-2.043 7.88,-8.125 -0.32,-23.692 0.14,-47.383 -0.29,-71.074 -0.13,-7.2 1.22,-10 9.26,-9.786 23,0.594 46.03,0.567 69.02,0 7.87,-0.187 9.4,2.325 9.37,9.688 -0.27,75.808 -0.12,151.621 -0.2,227.43"
         style="fill:#4b85cd;fill-opacity:1;fill-rule:nonzero;stroke:none"
         transform="matrix(0.13333333,0,0,-0.13333333,0,108.92)" />
      <path
         id="path5"
         d="m 1705.65,378.176 c -26.05,0.281 -52.11,0.117 -78.17,0.117 -26.05,0 -52.12,0.242 -78.16,-0.156 -7.19,-0.117 -9.38,2.109 -9.01,9.148 1.23,22.922 -2.4,46.07 2.41,68.805 9.2,43.398 48.76,71.976 93.57,68.082 40.91,-3.555 75.39,-39.996 77.12,-82.27 0.76,-18.586 0.01,-37.222 0.43,-55.828 0.14,-6.375 -2.13,-7.969 -8.19,-7.898 z m 95.39,-48.528 c 0,35.528 0.01,71.063 -0.01,106.59 0,9.129 -0.58,18.203 -1.91,27.285 -13.28,90.95 -91.01,154.184 -184.56,149.946 -85.04,-3.852 -158.86,-79.281 -160.92,-167.778 -1.84,-79.136 -0.43,-158.347 -0.65,-237.515 -0.02,-5.899 1.96,-7.403 7.57,-7.344 24.02,0.254 48.04,0.301 72.07,-0.019 6.34,-0.09 8,2.078 7.92,8.164 -0.31,24.023 0.08,48.046 -0.26,72.07 -0.08,6.473 1.67,8.719 8.45,8.691 52.11,-0.254 104.22,-0.285 156.32,0.028 7.49,0.039 8.9,-2.664 8.79,-9.403 -0.36,-23.683 0.09,-47.375 -0.29,-71.054 -0.09,-6.731 2.01,-8.614 8.64,-8.516 23.34,0.371 46.7,0.43 70.03,-0.02 7.23,-0.148 9.02,2.079 8.96,9.102 -0.32,39.922 -0.15,79.852 -0.15,119.773"
         style="fill:#4b85cd;fill-opacity:1;fill-rule:nonzero;stroke:none"
         transform="matrix(0.13333333,0,0,-0.13333333,0,108.92)" />
      <path
         id="path6"
         d="m 1213.6,390.324 c -7.52,-56.23 -56.31,-99.492 -112.91,-100 -17.25,-0.156 -34.51,0.254 -51.75,-0.168 -6.34,-0.156 -7.93,1.836 -7.89,8.02 0.29,36.531 0.15,73.066 0.15,109.605 -0.01,35.52 0.31,71.047 -0.23,106.563 -0.14,8.773 2.55,10.785 10.77,10.312 25.89,-1.511 52.07,2.68 77.71,-4.25 56.11,-15.16 92.1,-70.703 84.15,-130.082 z m -113.7,223.305 c -45.32,0.094 -90.65,-0.344 -135.974,0.133 -8.899,0.093 -10.278,-2.77 -10.238,-10.797 0.328,-65.289 0.183,-130.574 0.183,-195.86 0,-65.628 0.137,-131.253 -0.187,-196.878 -0.036,-7.676 2.043,-9.524 9.558,-9.465 46.008,0.351 92.008,0.156 138.018,0.195 11.53,0 22.98,1.25 34.26,3.477 93.65,18.507 158.18,92.14 166.15,189.433 9.57,116.946 -84.55,219.512 -201.77,219.762"
         style="fill:#4b85cd;fill-opacity:1;fill-rule:nonzero;stroke:none"
         transform="matrix(0.13333333,0,0,-0.13333333,0,108.92)" />
    </g>
  </g>
</svg>
